<svg width="91" height="31" viewBox="0 0 91 31" fill="none" xmlns="http://www.w3.org/2000/svg">
<path d="M15.1211 8.18182V13.8636H0.746094V8.18182H15.1211ZM3.53018 2.95455H11.3711V22.983C11.3711 23.286 11.4232 23.5417 11.5273 23.75C11.6315 23.9489 11.7925 24.1004 12.0103 24.2045C12.2281 24.2992 12.5075 24.3466 12.8484 24.3466C13.0851 24.3466 13.3597 24.3182 13.6722 24.2614C13.9942 24.2045 14.2309 24.1572 14.3825 24.1193L15.5188 29.6307C15.1684 29.7348 14.6665 29.8627 14.0131 30.0142C13.3692 30.1657 12.6022 30.2652 11.712 30.3125C9.91276 30.4072 8.40234 30.2225 7.18075 29.7585C5.95916 29.285 5.0406 28.5417 4.42507 27.5284C3.80954 26.5152 3.51125 25.2462 3.53018 23.7216V2.95455ZM28.5977 30.3977C26.2302 30.3977 24.2037 29.929 22.5181 28.9915C20.8325 28.0445 19.5399 26.7282 18.6403 25.0426C17.7406 23.3475 17.2908 21.3826 17.2908 19.1477C17.2908 16.9129 17.7406 14.9527 18.6403 13.267C19.5399 11.572 20.8325 10.2557 22.5181 9.31818C24.2037 8.37121 26.2302 7.89773 28.5977 7.89773C30.9651 7.89773 32.9916 8.37121 34.6772 9.31818C36.3628 10.2557 37.6554 11.572 38.555 13.267C39.4547 14.9527 39.9045 16.9129 39.9045 19.1477C39.9045 21.3826 39.4547 23.3475 38.555 25.0426C37.6554 26.7282 36.3628 28.0445 34.6772 28.9915C32.9916 29.929 30.9651 30.3977 28.5977 30.3977ZM28.6545 24.6023C29.3174 24.6023 29.8903 24.3797 30.3732 23.9347C30.8562 23.4896 31.2302 22.8551 31.4954 22.0312C31.7605 21.2074 31.8931 20.2273 31.8931 19.0909C31.8931 17.9451 31.7605 16.965 31.4954 16.1506C31.2302 15.3267 30.8562 14.6922 30.3732 14.2472C29.8903 13.8021 29.3174 13.5795 28.6545 13.5795C27.9537 13.5795 27.3524 13.8021 26.8505 14.2472C26.3486 14.6922 25.9651 15.3267 25.6999 16.1506C25.4348 16.965 25.3022 17.9451 25.3022 19.0909C25.3022 20.2273 25.4348 21.2074 25.6999 22.0312C25.9651 22.8551 26.3486 23.4896 26.8505 23.9347C27.3524 24.3797 27.9537 24.6023 28.6545 24.6023Z" fill="#4EA8DE"/>
<path d="M50.984 30.2841C49.431 30.2841 48.0011 29.8769 46.6942 29.0625C45.3969 28.2481 44.3552 27.0123 43.5692 25.3551C42.7927 23.6979 42.4045 21.6098 42.4045 19.0909C42.4045 16.4583 42.8117 14.3182 43.6261 12.6705C44.4499 11.0227 45.5105 9.81534 46.8079 9.0483C48.1147 8.28125 49.4878 7.89773 50.9272 7.89773C52.0067 7.89773 52.9537 8.08712 53.7681 8.46591C54.5825 8.83523 55.2643 9.33239 55.8136 9.95739C56.3628 10.5729 56.7795 11.25 57.0636 11.9886H57.1772V0.90909H65.0181V30H57.234V26.4205H57.0636C56.7605 27.1591 56.3249 27.822 55.7567 28.4091C55.198 28.9867 54.5162 29.446 53.7113 29.7869C52.9158 30.1184 52.0067 30.2841 50.984 30.2841ZM53.8817 24.2614C54.6014 24.2614 55.217 24.053 55.7283 23.6364C56.2492 23.2102 56.6469 22.6136 56.9215 21.8466C57.2056 21.0701 57.3477 20.1515 57.3477 19.0909C57.3477 18.0114 57.2056 17.0881 56.9215 16.321C56.6469 15.5445 56.2492 14.9527 55.7283 14.5455C55.217 14.1288 54.6014 13.9205 53.8817 13.9205C53.1621 13.9205 52.5465 14.1288 52.0352 14.5455C51.5333 14.9527 51.145 15.5445 50.8704 16.321C50.6052 17.0881 50.4727 18.0114 50.4727 19.0909C50.4727 20.1705 50.6052 21.0985 50.8704 21.875C51.145 22.642 51.5333 23.2339 52.0352 23.6506C52.5465 24.0578 53.1621 24.2614 53.8817 24.2614ZM79.3789 30.3977C77.0115 30.3977 74.985 29.929 73.2994 28.9915C71.6138 28.0445 70.3211 26.7282 69.4215 25.0426C68.5219 23.3475 68.0721 21.3826 68.0721 19.1477C68.0721 16.9129 68.5219 14.9527 69.4215 13.267C70.3211 11.572 71.6138 10.2557 73.2994 9.31818C74.985 8.37121 77.0115 7.89773 79.3789 7.89773C81.7463 7.89773 83.7728 8.37121 85.4585 9.31818C87.1441 10.2557 88.4367 11.572 89.3363 13.267C90.2359 14.9527 90.6857 16.9129 90.6857 19.1477C90.6857 21.3826 90.2359 23.3475 89.3363 25.0426C88.4367 26.7282 87.1441 28.0445 85.4585 28.9915C83.7728 29.929 81.7463 30.3977 79.3789 30.3977ZM79.4357 24.6023C80.0986 24.6023 80.6715 24.3797 81.1545 23.9347C81.6374 23.4896 82.0115 22.8551 82.2766 22.0312C82.5418 21.2074 82.6744 20.2273 82.6744 19.0909C82.6744 17.9451 82.5418 16.965 82.2766 16.1506C82.0115 15.3267 81.6374 14.6922 81.1545 14.2472C80.6715 13.8021 80.0986 13.5795 79.4357 13.5795C78.735 13.5795 78.1336 13.8021 77.6317 14.2472C77.1299 14.6922 76.7463 15.3267 76.4812 16.1506C76.216 16.965 76.0835 17.9451 76.0835 19.0909C76.0835 20.2273 76.216 21.2074 76.4812 22.0312C76.7463 22.8551 77.1299 23.4896 77.6317 23.9347C78.1336 24.3797 78.735 24.6023 79.4357 24.6023Z" fill="#5E60CE"/>
</svg>
